<?xml version="1.0" encoding="UTF-8" standalone="no"?>
<!-- Created with Inkscape (http://www.inkscape.org/) -->

<svg
   xmlns:dc="http://purl.org/dc/elements/1.1/"
   xmlns:cc="http://creativecommons.org/ns#"
   xmlns:rdf="http://www.w3.org/1999/02/22-rdf-syntax-ns#"
   xmlns:svg="http://www.w3.org/2000/svg"
   xmlns="http://www.w3.org/2000/svg"
   xmlns:sodipodi="http://sodipodi.sourceforge.net/DTD/sodipodi-0.dtd"
   xmlns:inkscape="http://www.inkscape.org/namespaces/inkscape"
   version="1.1"
   id="svg885"
   width="517.888"
   height="97.066269"
   viewBox="0 0 517.88799 97.066269"
   sodipodi:docname="logo_color.svg"
   inkscape:version="0.92.2 (unknown)">
  <metadata
     id="metadata891">
    <rdf:RDF>
      <cc:Work
         rdf:about="">
        <dc:format>image/svg+xml</dc:format>
        <dc:type
           rdf:resource="http://purl.org/dc/dcmitype/StillImage" />
        <dc:title></dc:title>
      </cc:Work>
    </rdf:RDF>
  </metadata>
  <defs
     id="defs889">
    <clipPath
       clipPathUnits="userSpaceOnUse"
       id="clipPath897">
      <rect
         style="opacity:0.45;fill:#ffffff;fill-opacity:1;stroke:none;stroke-width:7;stroke-linecap:round;stroke-linejoin:round;stroke-miterlimit:4;stroke-dasharray:none;stroke-dashoffset:0;stroke-opacity:1"
         id="rect899"
         width="276.63647"
         height="139.17735"
         x="408.94089"
         y="410.60629"
         ry="17.945" />
    </clipPath>
    <clipPath
       clipPathUnits="userSpaceOnUse"
       id="clipPath1530">
      <rect
         style="opacity:0.45;fill:#ffffff;fill-opacity:1;stroke:none;stroke-width:7;stroke-linecap:round;stroke-linejoin:round;stroke-miterlimit:4;stroke-dasharray:none;stroke-dashoffset:0;stroke-opacity:1"
         id="rect1532"
         width="298.34357"
         height="143.40271"
         x="407.13181"
         y="381.47202"
         ry="17.945" />
    </clipPath>
    <clipPath
       clipPathUnits="userSpaceOnUse"
       id="clipPath897-6">
      <rect
         style="opacity:0.45;fill:#ffffff;fill-opacity:1;stroke:none;stroke-width:7;stroke-linecap:round;stroke-linejoin:round;stroke-miterlimit:4;stroke-dasharray:none;stroke-dashoffset:0;stroke-opacity:1"
         id="rect899-0"
         width="276.63647"
         height="139.17735"
         x="408.94089"
         y="410.60629"
         ry="17.945" />
    </clipPath>
    <clipPath
       clipPathUnits="userSpaceOnUse"
       id="clipPath1578">
      <rect
         style="opacity:0.45;fill:#ffffff;fill-opacity:1;stroke:none;stroke-width:6.96709299;stroke-linecap:round;stroke-linejoin:round;stroke-miterlimit:4;stroke-dasharray:none;stroke-dashoffset:0;stroke-opacity:1"
         id="rect1580"
         width="256.63104"
         height="109.36568"
         x="426.70566"
         y="415.78348"
         ry="17.945" />
    </clipPath>
    <clipPath
       clipPathUnits="userSpaceOnUse"
       id="clipPath1595">
      <rect
         style="opacity:0.45;fill:#ffffff;fill-opacity:1;stroke:none;stroke-width:6.76264238;stroke-linecap:round;stroke-linejoin:round;stroke-miterlimit:4;stroke-dasharray:none;stroke-dashoffset:0;stroke-opacity:1"
         id="rect1597"
         width="85.048492"
         height="115.42295"
         x="321.61423"
         y="569.9585"
         ry="17.945" />
    </clipPath>
    <clipPath
       clipPathUnits="userSpaceOnUse"
       id="clipPath1649">
      <rect
         style="opacity:0.45;fill:#ffffff;fill-opacity:1;stroke:none;stroke-width:7;stroke-linecap:round;stroke-linejoin:round;stroke-miterlimit:4;stroke-dasharray:none;stroke-dashoffset:0;stroke-opacity:1"
         id="rect1651"
         width="202.24565"
         height="148.59119"
         x="254.55058"
         y="557.67413"
         ry="18.757807" />
    </clipPath>
    <clipPath
       clipPathUnits="userSpaceOnUse"
       id="clipPath897-9">
      <rect
         style="opacity:0.45;fill:#ffffff;fill-opacity:1;stroke:none;stroke-width:7;stroke-linecap:round;stroke-linejoin:round;stroke-miterlimit:4;stroke-dasharray:none;stroke-dashoffset:0;stroke-opacity:1"
         id="rect899-3"
         width="276.63647"
         height="139.17735"
         x="408.94089"
         y="410.60629"
         ry="17.945" />
    </clipPath>
    <clipPath
       clipPathUnits="userSpaceOnUse"
       id="clipPath1595-4">
      <rect
         style="opacity:0.45;fill:#ffffff;fill-opacity:1;stroke:none;stroke-width:6.76264238;stroke-linecap:round;stroke-linejoin:round;stroke-miterlimit:4;stroke-dasharray:none;stroke-dashoffset:0;stroke-opacity:1"
         id="rect1597-3"
         width="85.048492"
         height="115.42295"
         x="321.61423"
         y="569.9585"
         ry="17.945" />
    </clipPath>
    <clipPath
       clipPathUnits="userSpaceOnUse"
       id="clipPath897-5">
      <rect
         style="opacity:0.45;fill:#ffffff;fill-opacity:1;stroke:none;stroke-width:7;stroke-linecap:round;stroke-linejoin:round;stroke-miterlimit:4;stroke-dasharray:none;stroke-dashoffset:0;stroke-opacity:1"
         id="rect899-6"
         width="276.63647"
         height="139.17735"
         x="408.94089"
         y="410.60629"
         ry="17.945" />
    </clipPath>
    <clipPath
       clipPathUnits="userSpaceOnUse"
       id="clipPath1595-4-7">
      <rect
         style="opacity:0.45;fill:#ffffff;fill-opacity:1;stroke:none;stroke-width:6.76264238;stroke-linecap:round;stroke-linejoin:round;stroke-miterlimit:4;stroke-dasharray:none;stroke-dashoffset:0;stroke-opacity:1"
         id="rect1597-3-7"
         width="85.048492"
         height="115.42295"
         x="321.61423"
         y="569.9585"
         ry="17.945" />
    </clipPath>
    <clipPath
       clipPathUnits="userSpaceOnUse"
       id="clipPath897-9-4">
      <rect
         style="opacity:0.45;fill:#ffffff;fill-opacity:1;stroke:none;stroke-width:7;stroke-linecap:round;stroke-linejoin:round;stroke-miterlimit:4;stroke-dasharray:none;stroke-dashoffset:0;stroke-opacity:1"
         id="rect899-3-1"
         width="276.63647"
         height="139.17735"
         x="408.94089"
         y="410.60629"
         ry="17.945" />
    </clipPath>
    <clipPath
       clipPathUnits="userSpaceOnUse"
       id="clipPath1649-1">
      <rect
         style="opacity:0.45;fill:#ffffff;fill-opacity:1;stroke:none;stroke-width:7;stroke-linecap:round;stroke-linejoin:round;stroke-miterlimit:4;stroke-dasharray:none;stroke-dashoffset:0;stroke-opacity:1"
         id="rect1651-9"
         width="202.24565"
         height="148.59119"
         x="254.55058"
         y="557.67413"
         ry="18.757807" />
    </clipPath>
    <clipPath
       clipPathUnits="userSpaceOnUse"
       id="clipPath1836">
      <ellipse
         style="opacity:0.45;fill:#0844ff;fill-opacity:1;stroke:none;stroke-width:7.17546558;stroke-linecap:round;stroke-linejoin:round;stroke-miterlimit:4;stroke-dasharray:none;stroke-dashoffset:0;stroke-opacity:1"
         id="ellipse1838"
         cx="322.4249"
         cy="722.58276"
         rx="32.348801"
         ry="31.437567" />
    </clipPath>
    <clipPath
       clipPathUnits="userSpaceOnUse"
       id="clipPath1649-1-0">
      <rect
         style="opacity:0.45;fill:#ffffff;fill-opacity:1;stroke:none;stroke-width:7;stroke-linecap:round;stroke-linejoin:round;stroke-miterlimit:4;stroke-dasharray:none;stroke-dashoffset:0;stroke-opacity:1"
         id="rect1651-9-3"
         width="202.24565"
         height="148.59119"
         x="254.55058"
         y="557.67413"
         ry="18.757807" />
    </clipPath>
  </defs>
  <sodipodi:namedview
     pagecolor="#ffffff"
     bordercolor="#666666"
     borderopacity="1"
     objecttolerance="10"
     gridtolerance="10"
     guidetolerance="10"
     inkscape:pageopacity="0"
     inkscape:pageshadow="2"
     inkscape:window-width="1301"
     inkscape:window-height="744"
     id="namedview887"
     showgrid="false"
     inkscape:zoom="0.9268426"
     inkscape:cx="325.14533"
     inkscape:cy="106.84915"
     inkscape:window-x="65"
     inkscape:window-y="24"
     inkscape:window-maximized="1"
     inkscape:current-layer="svg885"
     showguides="false" />
  <text
     xml:space="preserve"
     style="font-style:normal;font-variant:normal;font-weight:normal;font-stretch:normal;font-size:91.12914276px;line-height:1.25;font-family:sans-serif;-inkscape-font-specification:'sans-serif, Normal';font-variant-ligatures:normal;font-variant-caps:normal;font-variant-numeric:normal;font-feature-settings:normal;text-align:start;letter-spacing:0px;word-spacing:0px;writing-mode:lr-tb;text-anchor:start;fill:#000000;fill-opacity:1;stroke:none;stroke-width:1.22048175"
     x="263.72131"
     y="650.21588"
     id="text903-1-1"
     transform="matrix(1.0452944,0,0,0.95666828,-282.14387,-553.77869)"
     clip-path="url(#clipPath1649-1)"><tspan
       sodipodi:role="line"
       id="tspan901-3-3"
       x="263.72131"
       y="650.21588"
       style="font-style:normal;font-variant:normal;font-weight:bold;font-stretch:normal;font-family:NanumBarunGothic;-inkscape-font-specification:NanumBarunGothic;stroke-width:1.22048175">photo</tspan></text>
  <text
     xml:space="preserve"
     style="font-style:normal;font-variant:normal;font-weight:normal;font-stretch:normal;font-size:167.46034241px;line-height:1.25;font-family:sans-serif;-inkscape-font-specification:'sans-serif, Normal';font-variant-ligatures:normal;font-variant-caps:normal;font-variant-numeric:normal;font-feature-settings:normal;text-align:start;letter-spacing:0px;word-spacing:0px;writing-mode:lr-tb;text-anchor:start;fill:#000000;fill-opacity:1;stroke:none;stroke-width:1.39550292"
     x="286.45782"
     y="73.063622"
     id="text865"><tspan
       sodipodi:role="line"
       id="tspan863"
       x="286.45782"
       y="73.063622"
       style="font-style:normal;font-variant:normal;font-weight:normal;font-stretch:normal;font-size:111.64022827px;font-family:'Londrina Outline';-inkscape-font-specification:'Londrina Outline, Normal';font-variant-ligatures:normal;font-variant-caps:normal;font-variant-numeric:normal;font-feature-settings:normal;text-align:start;writing-mode:lr-tb;text-anchor:start;stroke-width:1.39550292">mapa</tspan></text>
  <g
     id="g1327"
     transform="matrix(0.78025707,0,0,0.78025707,149.61902,-2.7450478)">
    <g
       id="g1576"
       transform="translate(68.386482,8.0092276)">
      <path
         transform="matrix(0.23045267,0,0,0.23045267,-16.79012,-279.96339)"
         inkscape:connector-curvature="0"
         id="path1334"
         d="m 216.05273,1258.2344 c -7.15981,0 -14.87399,5.5543 -17.13476,12.3496 l -13.46094,40.3945 c -2.26945,6.791 -9.97495,12.3457 -17.13476,12.3457 H 116.25 c -23.866072,0 -43.392578,19.5265 -43.392578,43.3926 v 195.2676 c 0,23.866 19.526506,43.3926 43.392578,43.3926 h 347.14258 c 23.86607,0 43.39258,-19.5266 43.39258,-43.3926 v -195.2676 c 0,-23.8661 -19.52651,-43.3926 -43.39258,-43.3926 h -52.07031 c -7.15983,0 -14.87596,-5.5543 -17.13672,-12.3496 l -13.46094,-40.3945 c -2.26945,-6.791 -9.97494,-12.3457 -17.13477,-12.3457 z m 73.76954,86.7851 c 59.90384,0 108.48046,48.5743 108.48046,108.4825 0,59.9125 -48.57662,108.4824 -108.48046,108.4824 -59.91252,0 -108.48243,-48.5699 -108.48243,-108.4824 0,-59.9082 48.56991,-108.4825 108.48243,-108.4825 z m 158.38281,21.666 c 8.39218,0 15.1875,6.804 15.1875,15.1875 0,8.3922 -6.79966,15.1875 -15.1875,15.1875 -8.3835,0 -15.1875,-6.7953 -15.1875,-15.1875 0,-8.3835 6.804,-15.1875 15.1875,-15.1875 z"
         style="fill:#030104;stroke-width:4.33928585" />
      <path
         inkscape:connector-curvature="0"
         d="m 42.085818,54.763906 c 0,0 5.510926,-5.485571 5.510926,-10.065169 0,-3.044614 -2.467288,-5.511902 -5.510926,-5.511902 -3.043639,0 -5.510927,2.467288 -5.510927,5.511902 0,4.839004 5.510927,10.065169 5.510927,10.065169 z M 39.213817,44.698737 c 0,-1.587647 1.286305,-2.872977 2.872001,-2.872977 1.585695,0 2.872001,1.28533 2.872001,2.872977 0,1.585695 -1.286306,2.871025 -2.872001,2.871025 -1.585696,0 -2.872001,-1.28533 -2.872001,-2.871025 z"
         id="path1816"
         style="fill:#ff0000;stroke-width:0.97521257" />
      <path
         inkscape:connector-curvature="0"
         d="m 62.455083,46.640385 -0.447623,0.142381 -2.394147,0.213571 -0.674847,1.078586 -0.488581,-0.156034 -1.90459,-1.716375 -0.277936,-0.892319 -0.367655,-0.952783 -1.198536,-1.074684 -1.410158,-0.275985 -0.03316,0.646566 1.382851,1.349694 0.676798,0.796749 -0.762616,0.397886 -0.620235,-0.18334 -0.927428,-0.386184 0.03218,-0.749938 -1.219015,-0.50126 -0.404714,1.759284 -1.226817,0.278911 0.121902,0.982039 1.597398,0.308167 0.27696,-1.569117 1.319463,0.196018 0.613409,0.358878 h 0.985939 l 0.672897,1.349694 1.787565,1.81292 -0.130679,0.705079 -1.441364,-0.184315 -2.489718,1.257049 -1.79244,2.150344 -0.233076,0.951807 h -0.644616 l -1.198536,-0.55197 -1.164404,0.55197 0.289638,1.229743 0.507111,-0.587078 0.890369,-0.02633 -0.06241,1.103941 0.738236,0.214547 0.737261,0.828931 1.203412,-0.338399 1.37505,0.216497 1.595448,0.430069 0.798699,0.09264 1.349694,1.534009 2.608694,1.534985 -1.686143,3.224053 -1.780738,0.827955 -0.675822,1.842177 -2.577487,1.72125 -0.27501,0.993742 c 6.585611,-1.586671 11.487029,-7.502311 11.487029,-14.579428 0.002,-3.095325 -0.934254,-5.970252 -2.537503,-8.356597 z"
         id="path1818"
         style="fill:#000000;stroke-width:0.97521257" />
      <path
         inkscape:connector-curvature="0"
         d="m 51.711166,62.838666 -1.092238,-2.026492 1.002518,-2.092806 -1.002518,-0.303291 -1.127346,-1.130272 -2.496544,-0.558796 -0.828931,-1.734904 v 1.0308 h -0.365705 l -1.58472,-2.148393 c -0.773344,0.925477 -1.360422,1.516455 -1.433563,1.588621 l -0.679723,0.676798 -0.695326,-0.660219 c -0.178464,-0.171638 -3.372286,-3.23283 -4.951155,-6.953266 -0.942055,1.959202 -1.482323,4.146604 -1.482323,6.465659 0,8.291258 6.72019,15.014373 15.011448,15.014373 0.637789,0 1.263875,-0.05559 1.883135,-0.131653 l -0.157009,-1.817796 c 0,0 0.689475,-2.701339 0.689475,-2.792034 0,-0.09265 -0.689475,-2.426329 -0.689475,-2.426329 z"
         id="path1820"
         style="fill:#000000;stroke-width:0.97521257" />
      <path
         inkscape:connector-curvature="0"
         d="m 48.798206,42.861436 1.104916,0.182365 2.681834,-0.251605 0.737261,-0.813327 1.041527,-0.696302 1.474522,0.222348 0.537342,-0.08094 c -1.941649,-0.913775 -4.10272,-1.44234 -6.390568,-1.44234 -1.068833,0 -2.10646,0.124827 -3.111904,0.336449 0.781145,0.853311 1.342868,1.909466 1.581795,3.084597 z m 1.820722,-1.389678 1.534009,-0.843559 0.98399,0.567574 -1.425761,1.085412 -1.359447,0.137505 -0.613408,-0.396912 z"
         id="path1822"
         style="fill:#000000;stroke-width:0.97521257" />
    </g>
    <g
       transform="matrix(0.9818276,0,0,0.9818276,-28.186892,21.905846)"
       id="g1828" />
    <g
       transform="matrix(0.9818276,0,0,0.9818276,-28.186892,21.905846)"
       id="g1830" />
    <g
       transform="matrix(0.9818276,0,0,0.9818276,-28.186892,21.905846)"
       id="g1832" />
    <g
       transform="matrix(0.9818276,0,0,0.9818276,-28.186892,21.905846)"
       id="g1834" />
    <g
       transform="matrix(0.9818276,0,0,0.9818276,-28.186892,21.905846)"
       id="g1836" />
    <g
       transform="matrix(0.9818276,0,0,0.9818276,-28.186892,21.905846)"
       id="g1838" />
    <g
       transform="matrix(0.9818276,0,0,0.9818276,-28.186892,21.905846)"
       id="g1840" />
    <g
       transform="matrix(0.9818276,0,0,0.9818276,-28.186892,21.905846)"
       id="g1842" />
    <g
       transform="matrix(0.9818276,0,0,0.9818276,-28.186892,21.905846)"
       id="g1844" />
    <g
       transform="matrix(0.9818276,0,0,0.9818276,-28.186892,21.905846)"
       id="g1846" />
    <g
       transform="matrix(0.9818276,0,0,0.9818276,-28.186892,21.905846)"
       id="g1848" />
    <g
       transform="matrix(0.9818276,0,0,0.9818276,-28.186892,21.905846)"
       id="g1850" />
    <g
       transform="matrix(0.9818276,0,0,0.9818276,-28.186892,21.905846)"
       id="g1852" />
    <g
       transform="matrix(0.9818276,0,0,0.9818276,-28.186892,21.905846)"
       id="g1854" />
    <g
       transform="matrix(0.9818276,0,0,0.9818276,-28.186892,21.905846)"
       id="g1856" />
    <g
       id="g1272" />
    <g
       id="g1274" />
    <g
       id="g1276" />
    <g
       id="g1278" />
    <g
       id="g1280" />
    <g
       id="g1282" />
    <g
       id="g1284" />
    <g
       id="g1286" />
    <g
       id="g1288" />
    <g
       id="g1290" />
    <g
       id="g1292" />
    <g
       id="g1294" />
    <g
       id="g1296" />
    <g
       id="g1298" />
    <g
       id="g1300" />
  </g>
</svg>
